<svg xmlns="http://www.w3.org/2000/svg" xmlns:xlink="http://www.w3.org/1999/xlink" width="500" zoomAndPan="magnify" viewBox="0 0 375 374.999991" height="500" preserveAspectRatio="xMidYMid meet" version="1.0"><defs><g/><clipPath id="37fbb33957"><path d="M 32.433594 32.433594 L 371.195312 32.433594 L 371.195312 371.195312 L 32.433594 371.195312 Z M 32.433594 32.433594 " clip-rule="nonzero"/></clipPath><clipPath id="6826425422"><path d="M 0.433594 0.433594 L 339.195312 0.433594 L 339.195312 339.195312 L 0.433594 339.195312 Z M 0.433594 0.433594 " clip-rule="nonzero"/></clipPath><clipPath id="be647f0795"><rect x="0" width="340" y="0" height="340"/></clipPath><clipPath id="4ad73940fc"><path d="M 3.804688 3.804688 L 351.945312 3.804688 L 351.945312 14.660156 L 3.804688 14.660156 Z M 340.855469 14.660156 L 351.945312 14.660156 L 351.945312 340.855469 L 340.855469 340.855469 Z M 3.804688 14.660156 L 14.660156 14.660156 L 14.660156 340.855469 L 3.804688 340.855469 Z M 3.804688 340.855469 L 351.945312 340.855469 L 351.945312 351.945312 L 3.804688 351.945312 Z M 3.804688 340.855469 " clip-rule="nonzero"/></clipPath><clipPath id="d6438e04c1"><path d="M 0.804688 0.804688 L 348.945312 0.804688 L 348.945312 11.660156 L 0.804688 11.660156 Z M 337.855469 11.660156 L 348.945312 11.660156 L 348.945312 337.855469 L 337.855469 337.855469 Z M 0.804688 11.660156 L 11.660156 11.660156 L 11.660156 337.855469 L 0.804688 337.855469 Z M 0.804688 337.855469 L 348.945312 337.855469 L 348.945312 348.945312 L 0.804688 348.945312 Z M 0.804688 337.855469 " clip-rule="nonzero"/></clipPath><clipPath id="2476947869"><rect x="0" width="349" y="0" height="349"/></clipPath><clipPath id="74a9436948"><rect x="0" width="260" y="0" height="296"/></clipPath></defs><g clip-path="url(#37fbb33957)"><g transform="matrix(1, 0, 0, 1, 32, 32)"><g clip-path="url(#be647f0795)"><g clip-path="url(#6826425422)"><path fill="#ff7518" d="M 0.433594 0.433594 L 339.195312 0.433594 L 339.195312 339.195312 L 0.433594 339.195312 Z M 0.433594 0.433594 " fill-opacity="1" fill-rule="nonzero"/></g></g></g></g><g clip-path="url(#4ad73940fc)"><g transform="matrix(1, 0, 0, 1, 3, 3)"><g clip-path="url(#2476947869)"><g clip-path="url(#d6438e04c1)"><path fill="#242e67" d="M 0.804688 0.804688 L 348.945312 0.804688 L 348.945312 348.945312 L 0.804688 348.945312 Z M 0.804688 0.804688 " fill-opacity="1" fill-rule="nonzero"/></g></g></g></g><g transform="matrix(1, 0, 0, 1, 60, 31)"><g clip-path="url(#74a9436948)"><g fill="#242e67" fill-opacity="1"><g transform="translate(0.789412, 107.572897)"><g><path d="M 81.171875 -36.5625 C 81.171875 -31.34375 80.160156 -26.414062 78.140625 -21.78125 C 76.117188 -17.144531 73.382812 -13.140625 69.9375 -9.765625 C 66.488281 -6.390625 62.394531 -3.722656 57.65625 -1.765625 C 52.925781 0.179688 47.847656 1.15625 42.421875 1.15625 C 37.054688 1.15625 32.003906 0.179688 27.265625 -1.765625 C 22.523438 -3.722656 18.429688 -6.390625 14.984375 -9.765625 C 11.535156 -13.140625 8.800781 -17.144531 6.78125 -21.78125 C 4.769531 -26.414062 3.765625 -31.34375 3.765625 -36.5625 C 3.765625 -41.789062 4.769531 -46.71875 6.78125 -51.34375 C 8.800781 -55.976562 11.535156 -59.984375 14.984375 -63.359375 C 18.429688 -66.734375 22.523438 -69.394531 27.265625 -71.34375 C 32.003906 -73.300781 37.054688 -74.28125 42.421875 -74.28125 C 47.847656 -74.28125 52.925781 -73.300781 57.65625 -71.34375 C 62.394531 -69.394531 66.488281 -66.734375 69.9375 -63.359375 C 73.382812 -59.984375 76.117188 -55.976562 78.140625 -51.34375 C 80.160156 -46.71875 81.171875 -41.789062 81.171875 -36.5625 Z M 65.609375 -36.5625 C 65.609375 -39.976562 65.015625 -43.128906 63.828125 -46.015625 C 62.640625 -48.910156 61.019531 -51.421875 58.96875 -53.546875 C 56.914062 -55.671875 54.460938 -57.34375 51.609375 -58.5625 C 48.753906 -59.78125 45.691406 -60.390625 42.421875 -60.390625 C 39.140625 -60.390625 36.085938 -59.78125 33.265625 -58.5625 C 30.453125 -57.34375 28.015625 -55.671875 25.953125 -53.546875 C 23.898438 -51.421875 22.28125 -48.910156 21.09375 -46.015625 C 19.914062 -43.128906 19.328125 -39.976562 19.328125 -36.5625 C 19.328125 -33.21875 19.914062 -30.082031 21.09375 -27.15625 C 22.28125 -24.238281 23.898438 -21.71875 25.953125 -19.59375 C 28.015625 -17.46875 30.453125 -15.796875 33.265625 -14.578125 C 36.085938 -13.359375 39.140625 -12.75 42.421875 -12.75 C 45.691406 -12.75 48.753906 -13.359375 51.609375 -14.578125 C 54.460938 -15.796875 56.914062 -17.46875 58.96875 -19.59375 C 61.019531 -21.71875 62.640625 -24.238281 63.828125 -27.15625 C 65.015625 -30.082031 65.609375 -33.21875 65.609375 -36.5625 Z M 65.609375 -36.5625 "/></g></g></g><g fill="#242e67" fill-opacity="1"><g transform="translate(86.329455, 107.572897)"><g><path d="M 70.203125 -31.65625 C 70.203125 -26.707031 69.4375 -22.195312 67.90625 -18.125 C 66.375 -14.050781 64.195312 -10.601562 61.375 -7.78125 C 58.550781 -4.957031 55.132812 -2.78125 51.125 -1.25 C 47.125 0.28125 42.6875 1.046875 37.8125 1.046875 C 32.875 1.046875 28.398438 0.28125 24.390625 -1.25 C 20.390625 -2.78125 16.992188 -4.957031 14.203125 -7.78125 C 11.421875 -10.601562 9.265625 -14.03125 7.734375 -18.0625 C 6.203125 -22.101562 5.4375 -26.632812 5.4375 -31.65625 L 5.4375 -73.125 L 20.578125 -73.125 L 20.578125 -31.65625 C 20.578125 -26.007812 22.160156 -21.476562 25.328125 -18.0625 C 28.503906 -14.65625 32.703125 -12.953125 37.921875 -12.953125 C 43.140625 -12.953125 47.300781 -14.65625 50.40625 -18.0625 C 53.507812 -21.476562 55.0625 -26.007812 55.0625 -31.65625 L 55.0625 -73.125 L 70.203125 -73.125 Z M 70.203125 -31.65625 "/></g></g></g><g fill="#242e67" fill-opacity="1"><g transform="translate(162.678401, 107.572897)"><g><path d="M 1.875 -59.75 L 1.875 -73.125 L 66.234375 -73.125 L 66.234375 -59.75 L 41.6875 -59.75 L 41.6875 0 L 26.53125 0 L 26.53125 -59.75 Z M 1.875 -59.75 "/></g></g></g><g fill="#242e67" fill-opacity="1"><g transform="translate(0.789412, 171.175009)"><g><path d="M 52.234375 -23.53125 C 52.234375 -20.164062 51.582031 -16.992188 50.28125 -14.015625 C 48.988281 -11.035156 47.234375 -8.457031 45.015625 -6.28125 C 42.796875 -4.113281 40.160156 -2.398438 37.109375 -1.140625 C 34.066406 0.109375 30.796875 0.734375 27.296875 0.734375 C 23.847656 0.734375 20.597656 0.109375 17.546875 -1.140625 C 14.492188 -2.398438 11.859375 -4.113281 9.640625 -6.28125 C 7.421875 -8.457031 5.660156 -11.035156 4.359375 -14.015625 C 3.066406 -16.992188 2.421875 -20.164062 2.421875 -23.53125 C 2.421875 -26.894531 3.066406 -30.066406 4.359375 -33.046875 C 5.660156 -36.023438 7.421875 -38.597656 9.640625 -40.765625 C 11.859375 -42.941406 14.492188 -44.65625 17.546875 -45.90625 C 20.597656 -47.164062 23.847656 -47.796875 27.296875 -47.796875 C 30.796875 -47.796875 34.066406 -47.164062 37.109375 -45.90625 C 40.160156 -44.65625 42.796875 -42.941406 45.015625 -40.765625 C 47.234375 -38.597656 48.988281 -36.023438 50.28125 -33.046875 C 51.582031 -30.066406 52.234375 -26.894531 52.234375 -23.53125 Z M 42.21875 -23.53125 C 42.21875 -25.726562 41.835938 -27.753906 41.078125 -29.609375 C 40.316406 -31.472656 39.273438 -33.085938 37.953125 -34.453125 C 36.628906 -35.828125 35.046875 -36.90625 33.203125 -37.6875 C 31.367188 -38.46875 29.398438 -38.859375 27.296875 -38.859375 C 25.191406 -38.859375 23.226562 -38.46875 21.40625 -37.6875 C 19.59375 -36.90625 18.023438 -35.828125 16.703125 -34.453125 C 15.378906 -33.085938 14.335938 -31.472656 13.578125 -29.609375 C 12.816406 -27.753906 12.4375 -25.726562 12.4375 -23.53125 C 12.4375 -21.382812 12.816406 -19.367188 13.578125 -17.484375 C 14.335938 -15.597656 15.378906 -13.972656 16.703125 -12.609375 C 18.023438 -11.242188 19.59375 -10.164062 21.40625 -9.375 C 23.226562 -8.59375 25.191406 -8.203125 27.296875 -8.203125 C 29.398438 -8.203125 31.367188 -8.59375 33.203125 -9.375 C 35.046875 -10.164062 36.628906 -11.242188 37.953125 -12.609375 C 39.273438 -13.972656 40.316406 -15.597656 41.078125 -17.484375 C 41.835938 -19.367188 42.21875 -21.382812 42.21875 -23.53125 Z M 42.21875 -23.53125 "/></g></g></g><g fill="#242e67" fill-opacity="1"><g transform="translate(55.837473, 171.175009)"><g><path d="M 4.234375 0 L 4.234375 -47.0625 L 40.609375 -47.0625 L 40.609375 -38.59375 L 13.984375 -38.59375 L 13.984375 -27.5 L 31.671875 -27.5 L 31.671875 -19.296875 L 13.984375 -19.296875 L 13.984375 0 Z M 4.234375 0 "/></g></g></g><g fill="#242e67" fill-opacity="1"><g transform="translate(99.190357, 171.175009)"><g/></g></g><g fill="#242e67" fill-opacity="1"><g transform="translate(113.103722, 171.175009)"><g><path d="M 1.203125 -38.453125 L 1.203125 -47.0625 L 42.625 -47.0625 L 42.625 -38.453125 L 26.828125 -38.453125 L 26.828125 0 L 17.078125 0 L 17.078125 -38.453125 Z M 1.203125 -38.453125 "/></g></g></g><g fill="#242e67" fill-opacity="1"><g transform="translate(157.330403, 171.175009)"><g><path d="M 4.234375 0 L 4.234375 -47.0625 L 13.984375 -47.0625 L 13.984375 -28.171875 L 35.640625 -28.171875 L 35.640625 -47.0625 L 45.390625 -47.0625 L 45.390625 0 L 35.640625 0 L 35.640625 -19.234375 L 13.984375 -19.234375 L 13.984375 0 Z M 4.234375 0 "/></g></g></g><g fill="#242e67" fill-opacity="1"><g transform="translate(207.404648, 171.175009)"><g><path d="M 4.234375 0 L 4.234375 -47.0625 L 40.40625 -47.0625 L 40.40625 -38.59375 L 13.984375 -38.59375 L 13.984375 -27.828125 L 31.390625 -27.828125 L 31.390625 -19.625 L 13.984375 -19.625 L 13.984375 -8.46875 L 40.671875 -8.46875 L 40.671875 0 Z M 4.234375 0 "/></g></g></g><g fill="#242e67" fill-opacity="1"><g transform="translate(0.789412, 262.7)"><g><path d="M 6.578125 -73.125 L 40.953125 -73.125 C 48.265625 -73.125 54.21875 -71.257812 58.8125 -67.53125 C 63.40625 -63.8125 65.703125 -58.988281 65.703125 -53.0625 C 65.703125 -49.863281 64.898438 -46.941406 63.296875 -44.296875 C 61.703125 -41.648438 59.515625 -39.457031 56.734375 -37.71875 C 60.210938 -36.039062 62.992188 -33.753906 65.078125 -30.859375 C 67.171875 -27.972656 68.21875 -24.753906 68.21875 -21.203125 C 68.21875 -14.867188 65.863281 -9.75 61.15625 -5.84375 C 56.457031 -1.945312 50.28125 0 42.625 0 L 6.578125 0 Z M 40.015625 -60.59375 L 21.734375 -60.59375 L 21.734375 -43.25 L 40.015625 -43.25 C 43.210938 -43.25 45.785156 -44.03125 47.734375 -45.59375 C 49.691406 -47.164062 50.671875 -49.273438 50.671875 -51.921875 C 50.671875 -54.566406 49.691406 -56.671875 47.734375 -58.234375 C 45.785156 -59.804688 43.210938 -60.59375 40.015625 -60.59375 Z M 41.46875 -12.53125 C 44.957031 -12.53125 47.742188 -13.382812 49.828125 -15.09375 C 51.921875 -16.800781 52.96875 -19.117188 52.96875 -22.046875 C 52.96875 -24.828125 51.921875 -27.085938 49.828125 -28.828125 C 47.742188 -30.566406 44.957031 -31.4375 41.46875 -31.4375 L 21.734375 -31.4375 L 21.734375 -12.53125 Z M 41.46875 -12.53125 "/></g></g></g><g fill="#242e67" fill-opacity="1"><g transform="translate(73.58726, 262.7)"><g><path d="M 81.171875 -36.5625 C 81.171875 -31.34375 80.160156 -26.414062 78.140625 -21.78125 C 76.117188 -17.144531 73.382812 -13.140625 69.9375 -9.765625 C 66.488281 -6.390625 62.394531 -3.722656 57.65625 -1.765625 C 52.925781 0.179688 47.847656 1.15625 42.421875 1.15625 C 37.054688 1.15625 32.003906 0.179688 27.265625 -1.765625 C 22.523438 -3.722656 18.429688 -6.390625 14.984375 -9.765625 C 11.535156 -13.140625 8.800781 -17.144531 6.78125 -21.78125 C 4.769531 -26.414062 3.765625 -31.34375 3.765625 -36.5625 C 3.765625 -41.789062 4.769531 -46.71875 6.78125 -51.34375 C 8.800781 -55.976562 11.535156 -59.984375 14.984375 -63.359375 C 18.429688 -66.734375 22.523438 -69.394531 27.265625 -71.34375 C 32.003906 -73.300781 37.054688 -74.28125 42.421875 -74.28125 C 47.847656 -74.28125 52.925781 -73.300781 57.65625 -71.34375 C 62.394531 -69.394531 66.488281 -66.734375 69.9375 -63.359375 C 73.382812 -59.984375 76.117188 -55.976562 78.140625 -51.34375 C 80.160156 -46.71875 81.171875 -41.789062 81.171875 -36.5625 Z M 65.609375 -36.5625 C 65.609375 -39.976562 65.015625 -43.128906 63.828125 -46.015625 C 62.640625 -48.910156 61.019531 -51.421875 58.96875 -53.546875 C 56.914062 -55.671875 54.460938 -57.34375 51.609375 -58.5625 C 48.753906 -59.78125 45.691406 -60.390625 42.421875 -60.390625 C 39.140625 -60.390625 36.085938 -59.78125 33.265625 -58.5625 C 30.453125 -57.34375 28.015625 -55.671875 25.953125 -53.546875 C 23.898438 -51.421875 22.28125 -48.910156 21.09375 -46.015625 C 19.914062 -43.128906 19.328125 -39.976562 19.328125 -36.5625 C 19.328125 -33.21875 19.914062 -30.082031 21.09375 -27.15625 C 22.28125 -24.238281 23.898438 -21.71875 25.953125 -19.59375 C 28.015625 -17.46875 30.453125 -15.796875 33.265625 -14.578125 C 36.085938 -13.359375 39.140625 -12.75 42.421875 -12.75 C 45.691406 -12.75 48.753906 -13.359375 51.609375 -14.578125 C 54.460938 -15.796875 56.914062 -17.46875 58.96875 -19.59375 C 61.019531 -21.71875 62.640625 -24.238281 63.828125 -27.15625 C 65.015625 -30.082031 65.609375 -33.21875 65.609375 -36.5625 Z M 65.609375 -36.5625 "/></g></g></g><g fill="#242e67" fill-opacity="1"><g transform="translate(159.127303, 262.7)"><g><path d="M 17.140625 0 L -0.3125 0 L 27.46875 -37.8125 L 1.15625 -73.125 L 19.21875 -73.125 L 36.5625 -49.09375 L 53.796875 -73.125 L 71.25 -73.125 L 45.234375 -37.8125 L 73.4375 0 L 55.375 0 L 36.25 -26.640625 Z M 17.140625 0 "/></g></g></g><g fill="#242e67" fill-opacity="1"><g transform="translate(232.760697, 262.7)"><g><path d="M 12.53125 -15.984375 C 14.90625 -15.984375 16.925781 -15.144531 18.59375 -13.46875 C 20.269531 -11.800781 21.109375 -9.785156 21.109375 -7.421875 C 21.109375 -5.117188 20.269531 -3.128906 18.59375 -1.453125 C 16.925781 0.210938 14.90625 1.046875 12.53125 1.046875 C 10.238281 1.046875 8.253906 0.210938 6.578125 -1.453125 C 4.910156 -3.128906 4.078125 -5.117188 4.078125 -7.421875 C 4.078125 -9.785156 4.910156 -11.800781 6.578125 -13.46875 C 8.253906 -15.144531 10.238281 -15.984375 12.53125 -15.984375 Z M 12.53125 -15.984375 "/></g></g></g></g></g></svg>